<?xml version="1.0" standalone="no"?>
<!DOCTYPE svg PUBLIC "-//W3C//DTD SVG 20010904//EN" "http://www.w3.org/TR/2001/REC-SVG-20010904/DTD/svg10.dtd">
<!-- Created using Krita: https://krita.org -->
<svg xmlns="http://www.w3.org/2000/svg" 
    xmlns:xlink="http://www.w3.org/1999/xlink"
    xmlns:krita="http://krita.org/namespaces/svg/krita"
    xmlns:sodipodi="http://sodipodi.sourceforge.net/DTD/sodipodi-0.dtd"
    width="168.48pt"
    height="168.48pt"
    viewBox="0 0 168.48 168.48">
<defs/>
<path id="shape01" transform="translate(31.3090040963642, 36.4658964351602)" fill="#ece9e4" fill-rule="evenodd" stroke-opacity="0" stroke="#000000" stroke-width="0" stroke-linecap="square" stroke-linejoin="bevel" d="M33.2495 0L0 63.7841L7.90848 79.9208L71.7525 102.606L109.442 37.6319L99.1497 23.356Z" sodipodi:nodetypes="ccccccc"/><path id="shape02" transform="translate(29.4920750229907, 34.010929787605)" fill="none" stroke="#540000" stroke-width="7.6008" stroke-linecap="square" stroke-linejoin="bevel" d="M35.0413 0C35.0413 0 23.3609 22.1057 0 66.3171L8.80233 80.3299L75.5619 106.667L110.118 40.2321L103.425 26.9502C71.5126 14.3734 48.718 5.39004 35.0413 0" sodipodi:nodetypes="ccccccc"/><path id="shape03" transform="translate(32.1281287843637, 37.4936959974278)" fill="none" stroke="#540000" stroke-width="2.1936" stroke-linecap="square" stroke-linejoin="bevel" d="M34.0332 0L39.5031 46.7463L14.7763 70.3831L0 63.2255" sodipodi:nodetypes="cccc"/><path id="shape1" transform="translate(71.4352344538051, 60.2434651585683)" fill="none" stroke="#540000" stroke-width="2.1936" stroke-linecap="square" stroke-linejoin="bevel" d="M63.9872 0L40.9126 29.3865L0 23.9965" sodipodi:nodetypes="ccc"/><path id="shape2" transform="matrix(0.997189054483274 0.0749265615036127 -0.0749265615036127 0.997189054483274 107.92957289857 90.459839878833)" fill="none" stroke="#540000" stroke-width="2.1936" stroke-linecap="square" stroke-linejoin="bevel" d="M4.05112 0L0 49.532" sodipodi:nodetypes="cc"/><path id="shape3" transform="translate(46.8111202871021, 107.792834970996)" fill="none" stroke="#540000" stroke-width="2.1936" stroke-linecap="square" stroke-linejoin="bevel" d="M0 0L59.8614 32.5117" sodipodi:nodetypes="cc"/><path id="shape4" transform="translate(90.3904321964575, 74.5777508276988)" fill="#540000" fill-rule="evenodd" stroke-opacity="0" stroke="#000000" stroke-width="0" stroke-linecap="square" stroke-linejoin="bevel" d="M0 3.76679C0.972789 1.66452 2.93779 0.825706 5.89499 1.25035C10.3308 1.88733 12.8181 3.53874 15.8326 3.06691C17.8422 2.75235 20.4461 1.73005 23.644 0C21.3858 3.24865 18.9655 4.94812 16.3831 5.09841C12.5094 5.32384 7.80562 2.64226 5.85421 2.3146C3.90281 1.98694 1.23783 2.60818 0 3.76679Z" sodipodi:nodetypes="ccccccc"/><path id="shape04" transform="translate(77.2722434376297, 54.2678205729563)" fill="#540000" fill-rule="evenodd" stroke-opacity="0" stroke="#000000" stroke-width="0" stroke-linecap="square" stroke-linejoin="bevel" d="M0 0.971711C4.19556 4.05512 6.80638 7.15419 7.83244 10.2689C9.37154 14.941 22.3952 17.7348 22.4343 15.7715C22.4734 13.8082 15.2084 12.5257 15.2084 9.8463C15.2084 7.1669 18.5605 9.60859 22.5843 13.8287C26.6081 18.0488 25.7538 17.77 27.7657 18.7385C29.107 19.3841 30.1896 19.8116 31.0135 20.021L28.6853 17.2124L28.6853 17.2124C27.194 16.4788 26.3027 15.3792 26.0114 13.9138C25.5745 11.7157 26.0081 8.83089 22.956 6.48898C19.9039 4.14708 12.5671 -0.134679 7.40528 0.00325307C2.24343 0.141185 2.24343 0.141185 0 0.971711Z" sodipodi:nodetypes="ccccccccccccc"/><path id="shape11" transform="translate(83.52, 52.5204368410505)" fill="#ece9e4" fill-rule="evenodd" stroke-opacity="0" stroke="#000000" stroke-width="0" stroke-linecap="square" stroke-linejoin="bevel" d="M0 0.857424C1.72926 3.47793 2.53916 4.99022 2.4297 5.39431C3.25005 3.58719 3.42163 2.18068 2.94442 1.1748C2.22861 -0.33403 2.22861 -0.33403 0 0.857424Z" sodipodi:nodetypes="cccc"/><path id="shape21" transform="matrix(0.962015311352104 -0.272995495794557 0.272995495794557 0.962015311352104 88.235847777702 53.2901322088653)" fill="#ece9e4" fill-rule="evenodd" stroke-opacity="0" stroke="#000000" stroke-width="0" stroke-linecap="square" stroke-linejoin="bevel" d="M0 0C0.760832 4.42111 0.979717 6.63782 0.656656 6.65013C2.26962 5.33242 2.91223 3.91927 2.58449 2.41067C2.09287 0.147781 2.09287 0.147781 0 0Z" sodipodi:nodetypes="cccc"/>
</svg>
